<?xml version="1.0" encoding="UTF-8" standalone="no"?>
<!-- Created with Inkscape (http://www.inkscape.org/) -->

<svg
   width="1494.5181mm"
   height="133.21672mm"
   viewBox="0 0 1494.5181 133.21673"
   version="1.1"
   id="svg5"
   inkscape:version="1.2 (dc2aeda, 2022-05-15)"
   sodipodi:docname="science-archive.logo.with-text.svg"
   inkscape:export-filename="science-archive.logo.with-text.png"
   inkscape:export-xdpi="96"
   inkscape:export-ydpi="96"
   xmlns:inkscape="http://www.inkscape.org/namespaces/inkscape"
   xmlns:sodipodi="http://sodipodi.sourceforge.net/DTD/sodipodi-0.dtd"
   xmlns:xlink="http://www.w3.org/1999/xlink"
   xmlns="http://www.w3.org/2000/svg"
   xmlns:svg="http://www.w3.org/2000/svg">
  <sodipodi:namedview
     id="namedview7"
     pagecolor="#ffffff"
     bordercolor="#000000"
     borderopacity="0.25"
     inkscape:showpageshadow="2"
     inkscape:pageopacity="0.0"
     inkscape:pagecheckerboard="0"
     inkscape:deskcolor="#d1d1d1"
     inkscape:document-units="mm"
     showgrid="false"
     inkscape:zoom="0.2102413"
     inkscape:cx="1122.5197"
     inkscape:cy="1210.5138"
     inkscape:window-width="1578"
     inkscape:window-height="1097"
     inkscape:window-x="222"
     inkscape:window-y="44"
     inkscape:window-maximized="0"
     inkscape:current-layer="layer1" />
  <defs
     id="defs2">
    <linearGradient
       inkscape:collect="always"
       id="linearGradient26910">
      <stop
         style="stop-color:#313131;stop-opacity:1;"
         offset="0"
         id="stop26906" />
      <stop
         style="stop-color:#e7e7e7;stop-opacity:1;"
         offset="1"
         id="stop26908" />
    </linearGradient>
    <linearGradient
       inkscape:collect="always"
       id="linearGradient26904">
      <stop
         style="stop-color:#313131;stop-opacity:1;"
         offset="0"
         id="stop26900" />
      <stop
         style="stop-color:#dcdcdc;stop-opacity:1;"
         offset="1"
         id="stop26902" />
    </linearGradient>
    <linearGradient
       inkscape:collect="always"
       id="linearGradient26097">
      <stop
         style="stop-color:#313131;stop-opacity:1;"
         offset="0"
         id="stop26093" />
      <stop
         style="stop-color:#f1f1f1;stop-opacity:1;"
         offset="1"
         id="stop26095" />
    </linearGradient>
    <linearGradient
       inkscape:collect="always"
       id="linearGradient23909">
      <stop
         style="stop-color:#3f9bf3;stop-opacity:1;"
         offset="0"
         id="stop23905" />
      <stop
         style="stop-color:#0028c9;stop-opacity:1;"
         offset="1"
         id="stop23907" />
    </linearGradient>
    <linearGradient
       inkscape:collect="always"
       id="linearGradient21723">
      <stop
         style="stop-color:#3f9bf3;stop-opacity:1;"
         offset="0"
         id="stop21719" />
      <stop
         style="stop-color:#0028c9;stop-opacity:1;"
         offset="1"
         id="stop21721" />
    </linearGradient>
    <inkscape:path-effect
       effect="fillet_chamfer"
       id="path-effect21657"
       is_visible="true"
       lpeversion="1"
       nodesatellites_param="F,0,0,1,0,7.9375,0,1 @ F,0,0,1,0,7.9375,0,1 @ F,0,0,1,0,7.9375,0,1 @ F,0,0,1,0,7.9375,0,1 @ F,0,0,1,0,7.9375,0,1 @ F,0,0,1,0,7.9375,0,1"
       unit="px"
       method="auto"
       mode="F"
       radius="30"
       chamfer_steps="1"
       flexible="false"
       use_knot_distance="true"
       apply_no_radius="true"
       apply_with_radius="true"
       only_selected="false"
       hide_knots="false" />
    <linearGradient
       inkscape:collect="always"
       id="linearGradient14964">
      <stop
         style="stop-color:#f24f6f;stop-opacity:1;"
         offset="0"
         id="stop14960" />
      <stop
         style="stop-color:#450000;stop-opacity:1;"
         offset="1"
         id="stop14962" />
    </linearGradient>
    <linearGradient
       inkscape:collect="always"
       xlink:href="#linearGradient14964"
       id="linearGradient14955"
       gradientUnits="userSpaceOnUse"
       x1="140.11337"
       y1="115.85773"
       x2="27.489534"
       y2="151.42842"
       gradientTransform="matrix(0.42853098,-0.23188788,0.22897382,0.49248264,-22.080011,-14.559681)" />
    <linearGradient
       inkscape:collect="always"
       xlink:href="#linearGradient21723"
       id="linearGradient21725"
       x1="35.237289"
       y1="61.036018"
       x2="31.776487"
       y2="92.497879"
       gradientUnits="userSpaceOnUse"
       gradientTransform="matrix(0.67228871,0,0,0.67228871,-13.169862,-36.194008)" />
    <linearGradient
       inkscape:collect="always"
       xlink:href="#linearGradient23909"
       id="linearGradient23911"
       x1="83.658928"
       y1="102.77729"
       x2="42.374557"
       y2="257.56967"
       gradientUnits="userSpaceOnUse"
       gradientTransform="matrix(0.66470048,-0.10072428,0.10072428,0.66470048,-14.425131,-36.138994)" />
    <linearGradient
       inkscape:collect="always"
       xlink:href="#linearGradient26097"
       id="linearGradient26099"
       x1="-22.506977"
       y1="194.8817"
       x2="80.161835"
       y2="139.69658"
       gradientUnits="userSpaceOnUse"
       gradientTransform="matrix(0.71436035,0,0,0.67608409,6.3407765,-55.710865)" />
    <linearGradient
       inkscape:collect="always"
       xlink:href="#linearGradient26904"
       id="linearGradient26134"
       gradientUnits="userSpaceOnUse"
       gradientTransform="matrix(0.75727409,0,0,0.69163519,-12.808551,-58.677303)"
       x1="-22.506977"
       y1="194.8817"
       x2="80.161835"
       y2="139.69658" />
    <linearGradient
       inkscape:collect="always"
       xlink:href="#linearGradient26910"
       id="linearGradient26171"
       gradientUnits="userSpaceOnUse"
       gradientTransform="matrix(0.71606462,0,0,0.6793366,-0.83539403,-56.883931)"
       x1="-22.506977"
       y1="194.8817"
       x2="80.161835"
       y2="139.69658" />
  </defs>
  <g
     inkscape:label="Layer 1"
     inkscape:groupmode="layer"
     id="layer1"
     transform="translate(-79.9019,-38.391649)">
    <g
       aria-label="Science Archive"
       id="text616"
       style="font-weight:bold;font-size:176.68px;font-family:'Golos Text VF';-inkscape-font-specification:'Golos Text VF, Bold';fill:#1f41c9;stroke-width:8.94546;stroke-linejoin:round">
      <path
         d="m 253.21033,171.60836 q 12.19092,0 21.90832,-2.6502 9.7174,-2.6502 16.43124,-7.59724 6.71384,-5.12372 10.24744,-12.3676 3.5336,-7.42056 3.5336,-16.43124 0,-9.36403 -3.00356,-15.72451 -3.00356,-6.53716 -8.65732,-10.95416 -5.47708,-4.417 -13.42768,-7.243884 -7.77392,-2.82688 -17.31464,-4.770359 -6.36048,-1.23676 -11.30752,-2.47352 -4.94703,-1.41344 -8.30395,-3.18024 -3.35692,-1.7668 -5.12372,-3.88696 -1.7668,-2.29684 -1.7668,-5.47708 0,-2.47352 0.8834,-4.417 0.8834,-1.94348 2.82688,-3.356919 2.12016,-1.59012 5.12372,-2.29684 3.18023,-0.70672 7.95059,-0.70672 4.24032,0 7.24388,0.70672 3.18024,0.70672 5.3004,2.12016 2.12016,1.236759 3.35692,3.356919 1.23676,2.12016 1.7668,4.94704 h 31.8024 q -0.35336,-8.657319 -3.71028,-15.194479 -3.18024,-6.71384 -9.36404,-11.30752 -6.00712,-4.59368 -15.0178,-6.890519 -9.01068,-2.47352 -21.37828,-2.47352 -11.13083,0 -20.14151,2.47352 -9.01068,2.473519 -15.37116,7.243879 -6.36048,4.59368 -9.7174,11.4842 -3.35692,6.71384 -3.35692,15.371159 0,9.01068 2.6502,15.547839 2.82688,6.360484 7.9506,10.777484 5.12372,4.417 12.3676,7.59724 7.24388,3.00356 16.43124,5.12372 7.24387,1.59012 12.72095,3.00356 5.47708,1.41344 9.18736,3.35692 3.71028,1.7668 5.47708,4.24032 1.94348,2.29683 1.94348,6.00711 0,2.82688 -1.06008,4.94704 -1.06008,2.12016 -3.71028,3.5336 -2.6502,1.41344 -6.53716,2.12016 -3.71028,0.70672 -8.834,0.70672 -4.77036,0 -8.30395,-0.70672 -3.35692,-0.70672 -5.83044,-2.29684 -2.47352,-1.59012 -4.06364,-4.06364 -1.41344,-2.6502 -2.12016,-5.83044 h -31.8024 q 0.35336,8.48064 3.5336,15.54784 3.35692,7.0672 9.7174,12.01424 6.53716,4.94704 16.25456,7.59724 9.7174,2.47352 22.61503,2.47352 z"
         style="fill:#ffffff"
         id="path422" />
      <path
         d="m 365.57873,171.60836 q 9.7174,0 17.668,-2.47352 7.9506,-2.47352 13.60436,-7.0672 5.65376,-4.77036 9.01068,-11.30752 3.35692,-6.71384 3.88696,-15.19448 h -28.09212 q -1.23676,6.71384 -5.65376,10.07076 -4.24032,3.18024 -10.42412,3.18024 -4.417,0 -8.12728,-1.41344 -3.5336,-1.59012 -6.1838,-4.77036 -2.6502,-3.18024 -4.06364,-7.9506 -1.41344,-4.77035 -1.41344,-11.30751 v -3.5336 q 0,-6.00712 1.59012,-10.42412 1.59012,-4.59368 4.06364,-7.42056 2.6502,-3.003564 6.36048,-4.417004 3.71028,-1.59012 7.77392,-1.59012 3.71028,0 6.36048,0.8834 2.6502,0.8834 4.59368,2.6502 2.12016,1.590124 3.35692,4.063644 1.23676,2.47352 1.7668,5.65376 h 28.09212 q -0.53004,-7.42056 -3.5336,-13.957723 -3.00356,-6.53716 -8.48064,-11.30752 -5.47708,-4.94704 -13.60436,-7.77392 -7.9506,-2.82688 -18.5514,-2.82688 -9.54072,0 -18.37472,3.18024 -8.834,3.00356 -15.37116,9.01068 -6.36048,5.83044 -10.24744,14.487763 -3.71028,8.65732 -3.71028,19.78816 v 3.5336 q 0,12.19091 3.5336,21.20159 3.5336,9.01068 9.89408,15.0178 6.36048,6.00712 15.0178,9.01068 8.834,3.00356 19.25812,3.00356 z"
         style="fill:#ffffff"
         id="path424" />
      <path
         d="m 424.94292,169.31152 h 27.20872 V 75.671127 H 424.94292 Z M 438.54728,66.837128 q 7.77392,0 11.83756,-3.88696 4.06364,-4.06364 4.06364,-10.24744 0,-6.183799 -4.24032,-10.247439 -4.06364,-4.06364 -11.66088,-4.06364 -7.59724,0 -11.83756,4.06364 -4.06364,4.06364 -4.06364,10.247439 0,6.1838 4.06364,10.24744 4.24032,3.88696 11.83756,3.88696 z"
         style="fill:#ffffff"
         id="path426" />
      <path
         d="m 516.63952,171.60836 q 9.18736,0 16.43124,-1.94348 7.42056,-1.7668 12.89764,-5.65376 5.65376,-3.88696 9.01068,-9.54072 3.5336,-5.83044 4.94704,-13.42768 h -25.08856 q -1.41344,4.06364 -6.00712,6.36048 -4.417,2.29684 -12.19092,2.29684 -3.71028,0 -7.59724,-1.06008 -3.71028,-1.06008 -6.53716,-3.5336 -2.82688,-2.47352 -4.59368,-6.1838 -1.7668,-3.88696 -1.94348,-9.36403 h 65.72496 v -9.7174 q 0,-22.615044 -11.83756,-34.452603 -11.83756,-12.01424 -34.98264,-12.01424 -9.89408,0 -18.5514,3.00356 -8.48064,2.82688 -14.84112,8.65732 -6.1838,5.83044 -9.89408,14.487759 -3.5336,8.657324 -3.5336,20.318204 v 3.5336 q 0,12.19091 3.71028,21.37827 3.88696,9.01068 10.24744,15.0178 6.53716,6.00712 15.37116,9.01068 9.01068,2.82688 19.25812,2.82688 z m -0.8834,-76.502433 q 3.88696,0 7.42056,0.883399 3.5336,0.70672 6.00712,2.6502 2.6502,1.943484 4.06364,5.123724 1.59012,3.00356 1.59012,7.9506 h -38.69292 q 0.17668,-4.59368 1.7668,-7.77392 1.7668,-3.18024 4.417,-5.123724 2.82688,-2.12016 6.1838,-2.82688 3.5336,-0.883399 7.24388,-0.883399 z"
         style="fill:#ffffff"
         id="path428" />
      <path
         d="m 575.827,169.31152 h 27.20871 v -54.77079 q 0,-3.71028 1.06008,-7.0672 1.23676,-3.5336 3.35692,-6.00712 2.29684,-2.473524 5.83044,-3.886964 3.71028,-1.59012 8.48064,-1.59012 9.01068,0 12.89764,4.770364 4.06364,4.59368 4.06364,13.78104 v 54.77079 h 27.20872 v -60.95459 q 0,-16.961283 -8.48064,-25.971963 -8.48064,-9.01068 -25.44192,-9.01068 -6.36048,0 -11.30752,1.06008 -4.77036,1.06008 -8.65732,3.18024 -3.88696,2.12016 -6.53716,4.94704 -2.6502,2.6502 -4.417,5.83044 V 75.671127 H 575.827 Z"
         style="fill:#ffffff"
         id="path430" />
      <path
         d="m 726.88832,171.60836 q 9.7174,0 17.668,-2.47352 7.9506,-2.47352 13.60436,-7.0672 5.65376,-4.77036 9.01068,-11.30752 3.35692,-6.71384 3.88696,-15.19448 H 742.9662 q -1.23676,6.71384 -5.65376,10.07076 -4.24032,3.18024 -10.42412,3.18024 -4.417,0 -8.12728,-1.41344 -3.5336,-1.59012 -6.1838,-4.77036 -2.6502,-3.18024 -4.06364,-7.9506 -1.41344,-4.77035 -1.41344,-11.30751 v -3.5336 q 0,-6.00712 1.59012,-10.42412 1.59012,-4.59368 4.06364,-7.42056 2.6502,-3.003564 6.36048,-4.417004 3.71028,-1.59012 7.77392,-1.59012 3.71028,0 6.36048,0.8834 2.6502,0.8834 4.59368,2.6502 2.12016,1.590124 3.35692,4.063644 1.23676,2.47352 1.7668,5.65376 h 28.09212 q -0.53004,-7.42056 -3.5336,-13.957723 -3.00356,-6.53716 -8.48064,-11.30752 -5.47708,-4.94704 -13.60436,-7.77392 -7.9506,-2.82688 -18.5514,-2.82688 -9.54072,0 -18.37472,3.18024 -8.834,3.00356 -15.37116,9.01068 -6.36048,5.83044 -10.24744,14.487763 -3.71028,8.65732 -3.71028,19.78816 v 3.5336 q 0,12.19091 3.5336,21.20159 3.5336,9.01068 9.89408,15.0178 6.36048,6.00712 15.0178,9.01068 8.834,3.00356 19.25812,3.00356 z"
         style="fill:#ffffff"
         id="path432" />
      <path
         d="m 829.53909,171.60836 q 9.18736,0 16.43123,-1.94348 7.42056,-1.7668 12.89764,-5.65376 5.65376,-3.88696 9.01068,-9.54072 3.5336,-5.83044 4.94704,-13.42768 h -25.08856 q -1.41344,4.06364 -6.00712,6.36048 -4.41699,2.29684 -12.19091,2.29684 -3.71028,0 -7.59724,-1.06008 -3.71028,-1.06008 -6.53716,-3.5336 -2.82688,-2.47352 -4.59368,-6.1838 -1.7668,-3.88696 -1.94348,-9.36403 h 65.72495 v -9.7174 q 0,-22.615044 -11.83756,-34.452603 -11.83756,-12.01424 -34.98263,-12.01424 -9.89408,0 -18.5514,3.00356 -8.48064,2.82688 -14.84112,8.65732 -6.1838,5.83044 -9.89408,14.487759 -3.5336,8.657324 -3.5336,20.318204 v 3.5336 q 0,12.19091 3.71028,21.37827 3.88696,9.01068 10.24744,15.0178 6.53716,6.00712 15.37116,9.01068 9.01068,2.82688 19.25812,2.82688 z m -0.8834,-76.502433 q 3.88696,0 7.42056,0.883399 3.53359,0.70672 6.00711,2.6502 2.6502,1.943484 4.06364,5.123724 1.59012,3.00356 1.59012,7.9506 h -38.69291 q 0.17668,-4.59368 1.7668,-7.77392 1.7668,-3.18024 4.417,-5.123724 2.82688,-2.12016 6.1838,-2.82688 3.5336,-0.883399 7.24388,-0.883399 z"
         style="fill:#ffffff"
         id="path434" />
      <path
         d="m 1013.9923,169.31152 h 33.7459 L 1002.8615,45.635529 h -31.97909 l -45.0534,123.675991 h 30.0356 l 8.48064,-23.67512 h 41.34315 z m -28.97549,-84.983073 11.66088,36.749443 h -23.32176 z"
         style="fill:#ffffff"
         id="path436" />
      <path
         d="m 1058.5155,169.31152 h 27.2087 v -54.59411 q 0,-3.88696 1.0601,-7.24388 1.0601,-3.5336 3.1802,-6.00712 2.1202,-2.473524 5.4771,-3.886964 3.3569,-1.59012 8.1273,-1.59012 4.2403,0 7.4205,0.70672 3.1803,0.70672 4.0637,1.23676 V 74.434367 q -1.4135,-0.35336 -3.1803,-0.70672 -1.7668,-0.35336 -4.7703,-0.35336 -4.417,0 -8.304,1.41344 -3.7103,1.41344 -6.7138,3.71028 -3.0036,2.29684 -5.3004,4.94704 -2.1202,2.47352 -3.0036,4.94704 v -12.72096 h -25.2652 z"
         style="fill:#ffffff"
         id="path438" />
      <path
         d="m 1168.9405,171.60836 q 9.7174,0 17.668,-2.47352 7.9506,-2.47352 13.6043,-7.0672 5.6538,-4.77036 9.0107,-11.30752 3.3569,-6.71384 3.887,-15.19448 h -28.0921 q -1.2368,6.71384 -5.6538,10.07076 -4.2403,3.18024 -10.4241,3.18024 -4.417,0 -8.1273,-1.41344 -3.5336,-1.59012 -6.1838,-4.77036 -2.6502,-3.18024 -4.0636,-7.9506 -1.4135,-4.77035 -1.4135,-11.30751 v -3.5336 q 0,-6.00712 1.5901,-10.42412 1.5902,-4.59368 4.0637,-7.42056 2.6502,-3.003564 6.3605,-4.417004 3.7102,-1.59012 7.7739,-1.59012 3.7103,0 6.3605,0.8834 2.6502,0.8834 4.5936,2.6502 2.1202,1.590124 3.357,4.063644 1.2367,2.47352 1.7668,5.65376 h 28.0921 q -0.5301,-7.42056 -3.5336,-13.957723 -3.0036,-6.53716 -8.4807,-11.30752 -5.477,-4.94704 -13.6043,-7.77392 -7.9506,-2.82688 -18.5514,-2.82688 -9.5407,0 -18.3747,3.18024 -8.834,3.00356 -15.3712,9.01068 -6.3605,5.83044 -10.2474,14.487763 -3.7103,8.65732 -3.7103,19.78816 v 3.5336 q 0,12.19091 3.5336,21.20159 3.5336,9.01068 9.8941,15.0178 6.3604,6.00712 15.0178,9.01068 8.834,3.00356 19.2581,3.00356 z"
         style="fill:#ffffff"
         id="path440" />
      <path
         d="m 1226.5378,169.31152 h 27.2087 v -54.77079 q 0,-4.06364 1.0601,-7.24388 1.0601,-3.35692 3.3569,-5.83044 2.2969,-2.650204 5.8305,-4.063644 3.7102,-1.41344 8.4806,-1.41344 9.0107,0 12.8976,4.770364 4.0637,4.59368 4.0637,13.78104 v 54.77079 h 27.2087 v -61.13127 q 0,-16.607923 -8.4806,-25.618603 -8.4807,-9.18736 -25.442,-9.18736 -6.0071,0 -10.7774,1.23676 -4.5937,1.23676 -8.304,3.5336 -3.5336,2.12016 -6.0071,4.59368 -2.2968,2.47352 -3.887,4.77036 V 45.635529 h -27.2087 z"
         style="fill:#ffffff"
         id="path442" />
      <path
         d="m 1335.196,169.31152 h 27.2087 V 75.671127 h -27.2087 z m 13.6043,-102.474392 q 7.7739,0 11.8376,-3.88696 4.0636,-4.06364 4.0636,-10.24744 0,-6.183799 -4.2403,-10.247439 -4.0636,-4.06364 -11.6609,-4.06364 -7.5972,0 -11.8375,4.06364 -4.0637,4.06364 -4.0637,10.247439 0,6.1838 4.0637,10.24744 4.2403,3.88696 11.8375,3.88696 z"
         style="fill:#ffffff"
         id="path444" />
      <path
         d="m 1414.1716,169.31152 h 27.3854 l 35.6894,-93.640393 h -27.2087 l -21.555,62.368033 -23.6751,-62.368033 h -30.0356 z"
         style="fill:#ffffff"
         id="path446" />
      <path
         d="m 1529.3666,171.60836 q 9.1874,0 16.4312,-1.94348 7.4206,-1.7668 12.8977,-5.65376 5.6537,-3.88696 9.0107,-9.54072 3.5336,-5.83044 4.947,-13.42768 h -25.0886 q -1.4134,4.06364 -6.0071,6.36048 -4.417,2.29684 -12.1909,2.29684 -3.7103,0 -7.5972,-1.06008 -3.7103,-1.06008 -6.5372,-3.5336 -2.8269,-2.47352 -4.5937,-6.1838 -1.7668,-3.88696 -1.9435,-9.36403 h 65.725 v -9.7174 q 0,-22.615044 -11.8376,-34.452603 -11.8375,-12.01424 -34.9826,-12.01424 -9.8941,0 -18.5514,3.00356 -8.4806,2.82688 -14.8411,8.65732 -6.1838,5.83044 -9.8941,14.487759 -3.5336,8.657324 -3.5336,20.318204 v 3.5336 q 0,12.19091 3.7103,21.37827 3.8869,9.01068 10.2474,15.0178 6.5372,6.00712 15.3712,9.01068 9.0107,2.82688 19.2581,2.82688 z m -0.8834,-76.502433 q 3.887,0 7.4206,0.883399 3.5336,0.70672 6.0071,2.6502 2.6502,1.943484 4.0636,5.123724 1.5901,3.00356 1.5901,7.9506 h -38.6929 q 0.1767,-4.59368 1.7668,-7.77392 1.7668,-3.18024 4.417,-5.123724 2.8269,-2.12016 6.1838,-2.82688 3.5336,-0.883399 7.2439,-0.883399 z"
         style="fill:#ffffff"
         id="path448" />
    </g>
  </g>
  <path
     id="rect12678-5"
     style="display:inline;fill:url(#linearGradient14955);fill-opacity:1;fill-rule:nonzero;stroke-width:0.736566;stroke-linejoin:round"
     d="m 61.08208,3.9989458 a 5.4866513,5.9353387 37.941314 0 0 -2.14962,0.682022 L 13.366219,29.337842 a 5.4866513,5.9353387 37.941314 0 0 -2.80094,7.83877 L 19.038883,55.401532 85.16276,47.234082 66.43167,6.9463388 a 5.4866513,5.9353387 37.941314 0 0 -5.34959,-2.947393 z" />
  <rect
     style="fill:url(#linearGradient26134);fill-opacity:1;fill-rule:nonzero;stroke-width:0.331615;stroke-linejoin:round;stroke-dasharray:none"
     id="rect25365-5"
     width="52.225693"
     height="32.004417"
     x="-2.4999309"
     y="35.209717"
     transform="matrix(0.89898393,-0.43798161,0.53231377,0.84654713,0,0)" />
  <rect
     style="fill:url(#linearGradient26171);fill-opacity:1;fill-rule:nonzero;stroke-width:0.319586;stroke-linejoin:round;stroke-dasharray:none"
     id="rect25365-5-3"
     width="49.383667"
     height="31.435318"
     x="8.9122438"
     y="35.333591"
     transform="matrix(0.92919649,-0.3695861,0.41509534,0.90977792,0,0)" />
  <rect
     style="fill:url(#linearGradient26099);fill-opacity:1;fill-rule:nonzero;stroke-width:0.318441;stroke-linejoin:round;stroke-dasharray:none"
     id="rect25365"
     width="49.266136"
     height="31.284811"
     x="16.06522"
     y="36.065105"
     transform="matrix(0.95186788,-0.30650864,0.34036652,0.94029284,0,0)" />
  <path
     style="display:inline;fill:url(#linearGradient23911);fill-opacity:1;fill-rule:nonzero;stroke-width:0.584253;stroke-linejoin:round;stroke-dasharray:none"
     d="m 16.368727,28.166363 57.251495,-8.675502 a 7.9375009,7.9375009 36.383337 0 1 9.037128,6.658689 l 7.96388,52.555313 a 7.9374961,7.9374961 126.38335 0 1 -6.658689,9.037124 6.1933409,6.1933409 106.11468 0 0 -2.425593,8.395589 l 2.801794,19.069084 a 7.9733343,7.9733343 126.51238 0 1 -6.69405,9.04241 l -45.511054,6.89644 a 7.9495727,7.9495727 36.339795 0 1 -9.049053,-6.65687 L 9.7219643,37.201674 a 7.9254448,7.9254448 126.3398 0 1 6.6467627,-9.035311 z"
     id="path21606"
     sodipodi:nodetypes="ccccccc"
     inkscape:path-effect="#path-effect21657"
     inkscape:original-d="M 8.5208188,29.355582 81.46813,18.301642 91.81045,86.552771 80.38309,88.284391 85.4926,123.05985 24.28573,132.33473 Z" />
  <circle
     style="fill:url(#linearGradient21725);fill-opacity:1;fill-rule:nonzero;stroke-width:0.780527;stroke-linejoin:round;stroke-dasharray:none"
     id="path21717"
     cx="9.4621897"
     cy="15.204028"
     r="11.633301"
     transform="rotate(-8.6166666)" />
</svg>
